<?xml version="1.0" encoding="iso-8859-1"?>
<!-- Generator: Adobe Illustrator 17.1.0, SVG Export Plug-In . SVG Version: 6.00 Build 0)  -->
<!DOCTYPE svg PUBLIC "-//W3C//DTD SVG 1.1//EN" "http://www.w3.org/Graphics/SVG/1.1/DTD/svg11.dtd">
<svg version="1.1" id="Capa_1" xmlns="http://www.w3.org/2000/svg" xmlns:xlink="http://www.w3.org/1999/xlink" x="0px" y="0px"
	 viewBox="0 0 431.667 431.667" style="enable-background:new 0 0 431.667 431.667;" xml:space="preserve">
<g>
	<path d="M359.584,415.671V8.083c0-4.161-3.177-7.577-7.237-7.961C351.908,0.048,351.46,0,351,0H80.667c-4.418,0-8,3.582-8,8
		c0,0.014,0.002,0.028,0.002,0.042c0,0.014-0.002,0.028-0.002,0.042v407.583h-0.5c-4.418,0-8,3.582-8,8s3.582,8,8,8h120.011h47.979
		H359.5c4.418,0,8-3.582,8-8C367.5,419.277,363.963,415.717,359.584,415.671z M88.667,16h254.917v399.667h-95.428v-55.958
		c0-4.418-3.582-8-8-8h-47.979c-4.418,0-8,3.582-8,8v55.958H88.667V16z M200.178,415.667v-47.958h31.979v47.958H200.178z"/>
	<path d="M160.146,351.708h-47.979c-4.418,0-8,3.582-8,8v31.708c0,4.418,3.582,8,8,8h47.979c4.418,0,8-3.582,8-8v-31.708
		C168.146,355.29,164.564,351.708,160.146,351.708z M152.146,383.417h-31.979v-15.708h31.979V383.417z"/>
	<path d="M272.167,399.417h47.979c4.418,0,8-3.582,8-8v-31.708c0-4.418-3.582-8-8-8h-47.979c-4.418,0-8,3.582-8,8v31.708
		C264.167,395.835,267.749,399.417,272.167,399.417z M280.167,367.708h31.979v15.708h-31.979V367.708z"/>
	<path d="M160.146,287.958h-47.979c-4.418,0-8,3.582-8,8v31.708c0,4.418,3.582,8,8,8h47.979c4.418,0,8-3.582,8-8v-31.708
		C168.146,291.54,164.564,287.958,160.146,287.958z M152.146,319.667h-31.979v-15.708h31.979V319.667z"/>
	<path d="M192.178,335.667h47.979c4.418,0,8-3.582,8-8v-31.708c0-4.418-3.582-8-8-8h-47.979c-4.418,0-8,3.582-8,8v31.708
		C184.178,332.085,187.76,335.667,192.178,335.667z M200.178,303.958h31.979v15.708h-31.979V303.958z"/>
	<path d="M272.167,335.667h47.979c4.418,0,8-3.582,8-8v-31.708c0-4.418-3.582-8-8-8h-47.979c-4.418,0-8,3.582-8,8v31.708
		C264.167,332.085,267.749,335.667,272.167,335.667z M280.167,303.958h31.979v15.708h-31.979V303.958z"/>
	<path d="M160.146,223.958h-47.979c-4.418,0-8,3.582-8,8v31.708c0,4.418,3.582,8,8,8h47.979c4.418,0,8-3.582,8-8v-31.708
		C168.146,227.54,164.564,223.958,160.146,223.958z M152.146,255.667h-31.979v-15.708h31.979V255.667z"/>
	<path d="M192.178,271.667h47.979c4.418,0,8-3.582,8-8v-31.708c0-4.418-3.582-8-8-8h-47.979c-4.418,0-8,3.582-8,8v31.708
		C184.178,268.085,187.76,271.667,192.178,271.667z M200.178,239.958h31.979v15.708h-31.979V239.958z"/>
	<path d="M272.167,271.667h47.979c4.418,0,8-3.582,8-8v-31.708c0-4.418-3.582-8-8-8h-47.979c-4.418,0-8,3.582-8,8v31.708
		C264.167,268.085,267.749,271.667,272.167,271.667z M280.167,239.958h31.979v15.708h-31.979V239.958z"/>
	<path d="M160.146,160.208h-47.979c-4.418,0-8,3.582-8,8v31.708c0,4.418,3.582,8,8,8h47.979c4.418,0,8-3.582,8-8v-31.708
		C168.146,163.79,164.564,160.208,160.146,160.208z M152.146,191.917h-31.979v-15.708h31.979V191.917z"/>
	<path d="M192.178,207.917h47.979c4.418,0,8-3.582,8-8v-31.708c0-4.418-3.582-8-8-8h-47.979c-4.418,0-8,3.582-8,8v31.708
		C184.178,204.335,187.76,207.917,192.178,207.917z M200.178,176.208h31.979v15.708h-31.979V176.208z"/>
	<path d="M272.167,207.917h47.979c4.418,0,8-3.582,8-8v-31.708c0-4.418-3.582-8-8-8h-47.979c-4.418,0-8,3.582-8,8v31.708
		C264.167,204.335,267.749,207.917,272.167,207.917z M280.167,176.208h31.979v15.708h-31.979V176.208z"/>
	<path d="M160.146,96.042h-47.979c-4.418,0-8,3.582-8,8v31.708c0,4.418,3.582,8,8,8h47.979c4.418,0,8-3.582,8-8v-31.708
		C168.146,99.624,164.564,96.042,160.146,96.042z M152.146,127.75h-31.979v-15.708h31.979V127.75z"/>
	<path d="M192.178,143.75h47.979c4.418,0,8-3.582,8-8v-31.708c0-4.418-3.582-8-8-8h-47.979c-4.418,0-8,3.582-8,8v31.708
		C184.178,140.169,187.76,143.75,192.178,143.75z M200.178,112.042h31.979v15.708h-31.979V112.042z"/>
	<path d="M272.167,143.75h47.979c4.418,0,8-3.582,8-8v-31.708c0-4.418-3.582-8-8-8h-47.979c-4.418,0-8,3.582-8,8v31.708
		C264.167,140.169,267.749,143.75,272.167,143.75z M280.167,112.042h31.979v15.708h-31.979V112.042z"/>
	<path d="M160.146,32.292h-47.979c-4.418,0-8,3.582-8,8V72c0,4.418,3.582,8,8,8h47.979c4.418,0,8-3.582,8-8V40.292
		C168.146,35.874,164.564,32.292,160.146,32.292z M152.146,64h-31.979V48.292h31.979V64z"/>
	<path d="M192.178,80h47.979c4.418,0,8-3.582,8-8V40.292c0-4.418-3.582-8-8-8h-47.979c-4.418,0-8,3.582-8,8V72
		C184.178,76.418,187.76,80,192.178,80z M200.178,48.292h31.979V64h-31.979V48.292z"/>
	<path d="M272.167,80h47.979c4.418,0,8-3.582,8-8V40.292c0-4.418-3.582-8-8-8h-47.979c-4.418,0-8,3.582-8,8V72
		C264.167,76.418,267.749,80,272.167,80z M280.167,48.292h31.979V64h-31.979V48.292z"/>
</g>
<g>
</g>
<g>
</g>
<g>
</g>
<g>
</g>
<g>
</g>
<g>
</g>
<g>
</g>
<g>
</g>
<g>
</g>
<g>
</g>
<g>
</g>
<g>
</g>
<g>
</g>
<g>
</g>
<g>
</g>
</svg>
